<?xml version="1.0" encoding="UTF-8"?>
<svg width="100%" height="100%" version="1.1" viewBox="0 0 88 88" xmlns="http://www.w3.org/2000/svg" xmlns:cc="http://creativecommons.org/ns#" xmlns:dc="http://purl.org/dc/elements/1.1/" xmlns:rdf="http://www.w3.org/1999/02/22-rdf-syntax-ns#">
 <path d="m8.6441 64.121v-40.242c11.799-6.762 23.599-13.524 35.398-20.286 11.771 6.762 23.543 13.524 35.314 20.286v40.242c-11.771 6.762-23.543 13.524-35.314 20.286-11.799-6.762-23.599-13.524-35.398-20.286z" fill="#f6f6f6" stroke="#000" stroke-width="2.5254"/>
 <path d="m43.242 43.589c11.615-6.329 23.229-12.658 34.844-18.987 0.17061 13.036 0.34123 26.072 0.51184 39.108-11.52 6.4137-23.039 12.827-34.559 19.241-0.26561-13.121-0.53123-26.241-0.79684-39.362zm6.4887 29.498c9.148-2.1355 17.3-7.5418 23.918-14.079 2.7409-3.4291-4.301-0.72803-5.9376-0.4517-0.20872-3.5138 0.79405-7.3219 1.0902-10.957 0.49356-3.7678 0.9984-7.5342 1.444-11.308-6.8805-0.31126-12.924 4.2171-17.523 8.8664-2.1717 2.9619 0.65966 7.2913 0.54964 10.869 0.8233 2.4955 0.21876 7.281 2.0147 8.2719 3.4806-0.47883 7.7111-4.7265 10.08-4.3993-2.7336 3.4438-7.1559 4.7844-10.984 6.537-1.8594 1.7557-6.9131 4.503-5.9665 6.7361l0.74082-0.03487z" fill="#cbcbcb" stroke-width=".082874"/>
</svg>
