<?xml version="1.0" encoding="UTF-8" standalone="no"?>
<!-- Created with Inkscape (http://www.inkscape.org/) -->

<svg
   width="128"
   height="127.99999"
   viewBox="0 0 33.866667 33.866664"
   version="1.1"
   id="svg8"
   xmlns="http://www.w3.org/2000/svg"
   xmlns:svg="http://www.w3.org/2000/svg"
   xmlns:rdf="http://www.w3.org/1999/02/22-rdf-syntax-ns#"
   xmlns:cc="http://creativecommons.org/ns#"
   xmlns:dc="http://purl.org/dc/elements/1.1/">
  <defs
     id="defs2" />
  <metadata
     id="metadata5">
    <rdf:RDF>
      <cc:Work
         rdf:about="">
        <dc:format>image/svg+xml</dc:format>
        <dc:type
           rdf:resource="http://purl.org/dc/dcmitype/StillImage" />
      </cc:Work>
    </rdf:RDF>
  </metadata>
  <g
     id="layer1"
     transform="translate(5.8338447,-13.20144)">
    <g
       id="g4741"
       transform="matrix(0.12177585,0,0,0.12056875,-1.6325083,12.971524)">
      <path
         id="path4737"
         d="M -5.8338447,207.40561 V 78.28894 L 106.61407,13.20144 218.79741,78.28894 V 207.40561 L 106.61407,272.4931 Z"
         style="fill:#f6f6f6;stroke:#000000;stroke-width:8.0626;stroke-dasharray:none;stroke-opacity:1" />
      <path
         id="path179"
         d="m 104.07502,141.52929 110.68965,-60.9215 1.62598,125.47985 -109.78346,61.73499 z m 20.61272,94.64566 c 8.561,-1.36503 22.58979,-6.90566 34.77207,-13.73314 8.44846,-4.73489 17.45957,-10.82064 25.81752,-17.43613 8.72093,-6.90281 17.22731,-15.21726 18.55921,-18.14047 0.26981,-0.59217 0.24879,-0.77358 -0.13391,-1.15568 -0.36305,-0.36248 -0.91552,-0.44887 -2.7589,-0.43139 -3.71393,0.0352 -9.27509,1.35366 -16.28846,3.86168 -2.01562,0.7208 -3.69686,1.27297 -3.73608,1.22704 -0.16881,-0.19764 3.44601,-29.37179 6.84564,-55.24912 1.21398,-9.24057 2.15592,-16.89033 2.09321,-16.99948 -0.19747,-0.34365 -6.05941,-0.21541 -8.74964,0.19141 -11.67357,1.7653 -26.1385,9.31897 -38.83406,20.27938 -3.00232,2.59198 -8.66363,8.37481 -10.38554,10.60847 l -1.13332,1.47013 1.06078,5.78494 c 1.66864,9.09991 3.21014,18.62874 5.55847,34.35994 1.6265,10.89577 2.70193,17.7159 2.81167,17.83099 0.23021,0.24143 9.15704,-3.22834 13.96159,-5.42672 4.01374,-1.83655 7.38001,-3.77497 13.6069,-7.83534 5.39432,-3.51748 6.57616,-4.09382 7.18285,-3.50281 1.32604,1.29178 -3.92898,6.46583 -11.75312,11.57204 -5.59387,3.65069 -11.90727,6.67998 -18.54423,8.8979 -3.61228,1.20714 -3.99351,1.40207 -6.48521,3.316 -7.13359,5.47947 -15.77323,13.5129 -18.33378,17.04736 -1.39429,1.92461 -1.60126,3.07547 -0.62376,3.46838 0.81553,0.3278 3.41645,0.32525 5.4901,-0.005 z"
         style="fill:#cbcbcb;fill-opacity:1;stroke-width:0.264583" />
    </g>
  </g>
</svg>
